#!OML:ASF H:\Male1\Project 1\Capture day 1\Session 1\Male1.ASF
:FULLY-SPECIFIED
:DEGREES
259
root 10.0964 15.2166 7.17677 -2.84656 -177.796 -1.00984
lowerback 16.7571 0.730638 -3.35435
upperback 5.64766 -0.424884 -0.0892136
thorax -3.35677 -0.581687 1.90835
lowerneck -3.02385 7.92075 10.4746
upperneck -7.29372 9.68065 -10.6005
head -0.605584 4.58907 -4.75096
rclavicle -6.16232e-015 0
rhumerus -42.4888 -12.6819 -80.9472
rradius 26.3447
rwrist -14.4519
rhand -30.4162 2.18006
rfingers 7.12502
rthumb -3.71941 -27.7672
lclavicle -6.16232e-015 0
lhumerus -29.4645 -11.9495 62.6376
lradius 39.589
lwrist 7.32222
lhand -23.9375 17.3712
lfingers 7.12502
lthumb 2.53768 47.3359
rfemur -19.0807 1.18987 22.5291
rtibia 46.4377
rfoot -27.2761 -20.1652
rtoes -23.6007
lfemur -7.0064 -10.4901 -21.7822
ltibia 30.4815
lfoot -24.5323 23.5341
ltoes -24.5947
260
root 10.1099 15.2355 7.22057 -2.79158 -177.016 -0.893147
lowerback 15.7739 0.584146 -3.25094
upperback 5.46584 -0.48656 -0.0449435
thorax -3.02271 -0.582708 1.89642
lowerneck -2.91863 7.61059 10.4825
upperneck -6.96462 9.31469 -10.5144
head -0.568574 4.42173 -4.73561
rclavicle 6.01324e-015 -4.77083e-015
rhumerus -42.8427 -12.1365 -80.6453
rradius 26.2625
rwrist -15.6698
rhand -31.0444 2.33843
rfingers 7.12502
rthumb -4.326 -27.5974
lclavicle 6.01324e-015 -4.77083e-015
lhumerus -32.1959 -13.474 64.3264
lradius 37.9868
lwrist 6.89728
lhand -23.6505 18.2875
lfingers 7.12502
lthumb 2.81486 48.2487
rfemur -17.0341 1.58514 22.722
rtibia 45.9395
rfoot -27.7031 -20.2442
rtoes -22.7085
lfemur -7.06548 -10.0697 -21.4117
ltibia 29.9862
lfoot -24.6335 23.6636
ltoes -25.6742
261
root 10.1275 15.2421 7.25668 -2.83557 -176.117 -0.855467
lowerback 14.8999 0.370293 -3.28888
upperback 5.23452 -0.66556 0.00945325
thorax -2.78761 -0.640599 1.99548
lowerneck -2.92301 7.32236 10.3091
upperneck -6.33419 9.00878 -10.1055
head -0.445925 4.28852 -4.58069
rclavicle 3.57812e-015 -2.68359e-015
rhumerus -43.2613 -11.8112 -80.189
rradius 25.9983
rwrist -16.3079
rhand -31.372 2.54898
rfingers 7.12502
rthumb -4.64239 -27.3802
lclavicle 3.57812e-015 -2.68359e-015
lhumerus -35.2004 -14.7608 66.1706
lradius 36.3568
lwrist 5.98514
lhand -22.5249 17.663
lfingers 7.12502
lthumb 3.9019 47.607
rfemur -14.7041 1.95821 22.8734
rtibia 45.0139
rfoot -28.5417 -19.9792
rtoes -19.686
lfemur -7.24725 -9.50121 -21.1294
ltibia 29.8567
lfoot -24.7913 23.2437
ltoes -27.1453
262
root 10.1473 15.2358 7.28197 -2.9685 -175.17 -1.04949
lowerback 14.1295 0.19011 -3.52259
upperback 4.99406 -0.842723 -0.0276931
thorax -2.61292 -0.700623 2.10718
lowerneck -3.01122 7.00623 10.0959
upperneck -5.58042 8.6661 -9.5931
head -0.282169 4.13649 -4.38416
rclavicle 2.43511e-015 6.06293e-015
rhumerus -43.8016 -11.7476 -79.5233
rradius 25.7686
rwrist -16.0424
rhand -30.7558 2.52987
rfingers 7.12502
rthumb -4.04735 -27.4114
lclavicle 2.43511e-015 6.06293e-015
lhumerus -38.2836 -16.2604 68.1708
lradius 34.7886
lwrist 5.32845
lhand -21.5276 16.4493
lfingers 7.12502
lthumb 4.86492 46.3735
rfemur -12.2268 2.01595 22.8808
rtibia 43.7213
rfoot -29.2434 -20.6881
rtoes -18.5574
lfemur -7.39258 -8.95141 -21.1564
ltibia 29.9221
lfoot -25.6628 22.6228
ltoes -25.9916
263
root 10.1552 15.224 7.31462 -3.1484 -174.47 -0.707253
lowerback 13.5113 0.108158 -2.98514
upperback 4.75754 -0.795734 0.0449811
thorax -2.5361 -0.646956 1.86426
lowerneck -3.23414 6.65231 9.9723
upperneck -4.73597 8.26786 -8.94686
head -0.0833973 3.94716 -4.61119
rclavicle -2.98177e-015 8.15017e-015
rhumerus -44.3215 -11.981 -78.5188
rradius 25.4222
rwrist -14.1021
rhand -29.1925 2.23714
rfingers 7.12502
rthumb -2.53765 -27.7275
lclavicle -2.98177e-015 8.15017e-015
lhumerus -41.1648 -17.8251 70.4258
lradius 33.1935
lwrist 4.78274
lhand -20.6645 15.6395
lfingers 7.12502
lthumb 5.69825 45.5429
rfemur -9.73573 2.07346 23.5551
rtibia 41.9701
rfoot -30.0279 -21.9659
rtoes -17.6688
lfemur -7.61133 -8.45706 -20.5616
ltibia 30.1896
lfoot -27.1359 21.3005
ltoes -22.1839
264
root 10.1719 15.2124 7.34063 -3.28974 -173.759 -0.705823
lowerback 12.8399 0.107547 -2.87349
upperback 4.61166 -0.713931 0.10042
thorax -2.33009 -0.588202 1.83771
lowerneck -3.72604 6.33543 9.62288
upperneck -4.01827 7.8596 -8.64815
head 0.166659 3.75156 -4.41957
rclavicle -1.18277e-014 -9.93923e-017
rhumerus -44.6138 -11.8004 -78.0319
rradius 25.2234
rwrist -13.9813
rhand -29.2028 2.66885
rfingers 7.12502
rthumb -2.54755 -27.2957
lclavicle -1.18277e-014 -9.93923e-017
lhumerus -43.6778 -18.5833 72.55
lradius 31.3656
lwrist 3.23173
lhand -19.1213 14.6395
lfingers 7.12502
lthumb 7.18807 44.4975
rfemur -7.20059 2.04201 23.9046
rtibia 39.8408
rfoot -31.1032 -23.3038
rtoes -16.7146
lfemur -7.85458 -7.97574 -20.336
ltibia 30.5854
lfoot -26.8466 20.9052
ltoes -24.0669
265
root 10.2009 15.1948 7.36333 -3.33547 -173.026 -0.800492
lowerback 12.1188 0.056638 -3.1587
upperback 4.49639 -0.746801 0.25907
thorax -2.05091 -0.593374 2.15835
lowerneck -4.16586 6.13052 9.0779
upperneck -3.4876 7.60034 -8.30764
head 0.351741 3.62784 -4.17845
rclavicle -1.07468e-014 -6.90777e-015
rhumerus -44.6268 -11.8259 -77.3496
rradius 24.7737
rwrist -13.3894
rhand -29.1476 3.10106
rfingers 7.12502
rthumb -2.49421 -26.8641
lclavicle -1.07468e-014 -6.90777e-015
lhumerus -45.8713 -18.1139 74.2767
lradius 29.3269
lwrist 0.922273
lhand -17.4758 13.7096
lfingers 7.12502
lthumb 8.77617 43.5071
rfemur -4.76581 2.16686 24.2942
rtibia 37.1366
rfoot -31.1247 -26.2644
rtoes -21.5764
lfemur -8.42758 -7.31916 -20.256
ltibia 31.3316
lfoot -25.3759 21.8576
ltoes -29.9706
266
root 10.2 15.165 7.40953 -3.2575 -172.755 -1.28346
lowerback 11.6166 0.0937669 -3.27767
upperback 4.37168 -0.66733 0.152037
thorax -1.91218 -0.54183 2.09719
lowerneck -4.4563 5.87715 8.75261
upperneck -3.33886 7.25098 -8.3407
head 0.406906 3.4498 -4.12983
rclavicle -1.1281e-014 8.23093e-016
rhumerus -44.2818 -11.9416 -76.8553
rradius 24.18
rwrist -13.0277
rhand -29.1182 2.98298
rfingers 7.12502
rthumb -2.46587 -26.9825
lclavicle -1.1281e-014 8.23093e-016
lhumerus -47.606 -16.9653 75.4791
lradius 27.2681
lwrist -1.095
lhand -16.1204 13.3291
lfingers 7.12502
lthumb 10.084 43.0674
rfemur -2.84878 3.15687 24.1881
rtibia 34.2525
rfoot -31.2406 -29.2842
rtoes -25.8465
lfemur -9.14978 -6.49275 -20.6705
ltibia 32.1718
lfoot -24.8676 22.4747
ltoes -32.135
267
root 10.2302 15.1288 7.44793 -3.38255 -172.485 -0.816034
lowerback 11.2615 0.031047 -2.88029
upperback 4.25978 -0.663871 0.378187
thorax -1.8368 -0.527347 2.10373
lowerneck -4.78134 5.75192 8.49878
upperneck -3.08626 7.07858 -8.38573
head 0.522548 3.35979 -4.0902
rclavicle -2.08289e-014 9.06955e-015
rhumerus -43.7294 -11.9088 -76.539
rradius 23.6029
rwrist -12.9925
rhand -29.2095 2.47523
rfingers 7.12502
rthumb -2.554 -27.4892
lclavicle -2.08289e-014 9.06955e-015
lhumerus -48.9822 -14.3328 75.4019
lradius 25.2312
lwrist -4.25991
lhand -13.8801 12.6943
lfingers 7.12502
lthumb 12.2447 42.3159
rfemur -1.16034 5.88777 25.4207
rtibia 31.6289
rfoot -35.2771 -28.1977
rtoes -15.0529
lfemur -9.78752 -5.60891 -19.894
ltibia 32.9547
lfoot -24.8509 22.0081
ltoes -32.6441
268
root 10.2429 15.0951 7.51182 -3.2054 -172.454 -1.21927
lowerback 11.0844 0.0564675 -3.03899
upperback 4.10429 -0.624755 0.230176
thorax -1.9039 -0.495413 2.03346
lowerneck -5.18346 5.71619 8.3044
upperneck -2.90866 7.01401 -8.29488
head 0.633567 3.31996 -4.00925
rclavicle 1.69712e-014 1.04362e-015
rhumerus -42.9091 -11.7794 -76.5817
rradius 23.0898
rwrist -12.8176
rhand -29.89 2.00884
rfingers 7.12502
rthumb -3.21123 -27.9467
lclavicle 1.69712e-014 1.04362e-015
lhumerus -49.8074 -10.416 73.7557
lradius 23.2466
lwrist -8.79744
lhand -10.592 11.8375
lfingers 7.12502
lthumb 15.4135 41.2429
rfemur -0.401216 7.25722 25.8617
rtibia 29.5812
rfoot -29.7026 -34.6762
rtoes -30.3913
lfemur -10.7128 -4.87734 -20.1329
ltibia 33.7737
lfoot -24.6847 21.3916
ltoes -33.0173
